<?xml version="1.0" encoding="utf-8" standalone="no"?>
<!DOCTYPE svg PUBLIC "-//W3C//DTD SVG 1.1//EN"
  "http://www.w3.org/Graphics/SVG/1.1/DTD/svg11.dtd">
<svg height="345.6pt" version="1.1" viewBox="0 0 432 345.6" width="432pt" xmlns="http://www.w3.org/2000/svg" xmlns:xlink="http://www.w3.org/1999/xlink">
 <metadata>
  <rdf:RDF xmlns:cc="http://creativecommons.org/ns#" xmlns:dc="http://purl.org/dc/elements/1.1/" xmlns:rdf="http://www.w3.org/1999/02/22-rdf-syntax-ns#">
   <cc:Work>
    <dc:type rdf:resource="http://purl.org/dc/dcmitype/StillImage"/>
    <dc:date>2026-06-05T04:27:34.961578</dc:date>
    <dc:format>image/svg+xml</dc:format>
    <dc:creator>
     <cc:Agent>
      <dc:title>Matplotlib v3.4.3, https://matplotlib.org/</dc:title>
     </cc:Agent>
    </dc:creator>
   </cc:Work>
  </rdf:RDF>
 </metadata>
 <defs>
  <style type="text/css">*{stroke-linecap:butt;stroke-linejoin:round;}</style>
 </defs>
 <g id="figure_1">
  <g id="patch_1">
   <path d="M 0 345.6 
L 432 345.6 
L 432 0 
L 0 0 
z
" style="fill:#ffffff;"/>
  </g>
  <g id="axes_1">
   <g id="patch_2">
    <path d="M 57.6 316.8 
L 403.2 316.8 
L 403.2 28.8 
L 57.6 28.8 
z
" style="fill:#ffffff;"/>
   </g>
   <g id="matplotlib.axis_1">
    <g id="xtick_1">
     <g id="line2d_1">
      <defs>
       <path d="M 0 0 
L 0 3.5 
" id="m97b7bd249b" style="stroke:#000000;stroke-width:0.8;"/>
      </defs>
      <g>
       <use style="stroke:#000000;stroke-width:0.8;" x="57.6" xlink:href="#m97b7bd249b" y="316.8"/>
      </g>
     </g>
     <g id="text_1">
      <!-- −0.3 -->
      <g transform="translate(45.458594 331.398437)scale(0.1 -0.1)">
       <defs>
        <path d="M 678 2272 
L 4684 2272 
L 4684 1741 
L 678 1741 
L 678 2272 
z
" id="DejaVuSans-2212" transform="scale(0.015625)"/>
        <path d="M 2034 4250 
Q 1547 4250 1301 3770 
Q 1056 3291 1056 2328 
Q 1056 1369 1301 889 
Q 1547 409 2034 409 
Q 2525 409 2770 889 
Q 3016 1369 3016 2328 
Q 3016 3291 2770 3770 
Q 2525 4250 2034 4250 
z
M 2034 4750 
Q 2819 4750 3233 4129 
Q 3647 3509 3647 2328 
Q 3647 1150 3233 529 
Q 2819 -91 2034 -91 
Q 1250 -91 836 529 
Q 422 1150 422 2328 
Q 422 3509 836 4129 
Q 1250 4750 2034 4750 
z
" id="DejaVuSans-30" transform="scale(0.015625)"/>
        <path d="M 684 794 
L 1344 794 
L 1344 0 
L 684 0 
L 684 794 
z
" id="DejaVuSans-2e" transform="scale(0.015625)"/>
        <path d="M 2597 2516 
Q 3050 2419 3304 2112 
Q 3559 1806 3559 1356 
Q 3559 666 3084 287 
Q 2609 -91 1734 -91 
Q 1441 -91 1130 -33 
Q 819 25 488 141 
L 488 750 
Q 750 597 1062 519 
Q 1375 441 1716 441 
Q 2309 441 2620 675 
Q 2931 909 2931 1356 
Q 2931 1769 2642 2001 
Q 2353 2234 1838 2234 
L 1294 2234 
L 1294 2753 
L 1863 2753 
Q 2328 2753 2575 2939 
Q 2822 3125 2822 3475 
Q 2822 3834 2567 4026 
Q 2313 4219 1838 4219 
Q 1578 4219 1281 4162 
Q 984 4106 628 3988 
L 628 4550 
Q 988 4650 1302 4700 
Q 1616 4750 1894 4750 
Q 2613 4750 3031 4423 
Q 3450 4097 3450 3541 
Q 3450 3153 3228 2886 
Q 3006 2619 2597 2516 
z
" id="DejaVuSans-33" transform="scale(0.015625)"/>
       </defs>
       <use xlink:href="#DejaVuSans-2212"/>
       <use x="83.789062" xlink:href="#DejaVuSans-30"/>
       <use x="147.412109" xlink:href="#DejaVuSans-2e"/>
       <use x="179.199219" xlink:href="#DejaVuSans-33"/>
      </g>
     </g>
    </g>
    <g id="xtick_2">
     <g id="line2d_2">
      <g>
       <use style="stroke:#000000;stroke-width:0.8;" x="100.8" xlink:href="#m97b7bd249b" y="316.8"/>
      </g>
     </g>
     <g id="text_2">
      <!-- −0.2 -->
      <g transform="translate(88.658594 331.398437)scale(0.1 -0.1)">
       <defs>
        <path d="M 1228 531 
L 3431 531 
L 3431 0 
L 469 0 
L 469 531 
Q 828 903 1448 1529 
Q 2069 2156 2228 2338 
Q 2531 2678 2651 2914 
Q 2772 3150 2772 3378 
Q 2772 3750 2511 3984 
Q 2250 4219 1831 4219 
Q 1534 4219 1204 4116 
Q 875 4013 500 3803 
L 500 4441 
Q 881 4594 1212 4672 
Q 1544 4750 1819 4750 
Q 2544 4750 2975 4387 
Q 3406 4025 3406 3419 
Q 3406 3131 3298 2873 
Q 3191 2616 2906 2266 
Q 2828 2175 2409 1742 
Q 1991 1309 1228 531 
z
" id="DejaVuSans-32" transform="scale(0.015625)"/>
       </defs>
       <use xlink:href="#DejaVuSans-2212"/>
       <use x="83.789062" xlink:href="#DejaVuSans-30"/>
       <use x="147.412109" xlink:href="#DejaVuSans-2e"/>
       <use x="179.199219" xlink:href="#DejaVuSans-32"/>
      </g>
     </g>
    </g>
    <g id="xtick_3">
     <g id="line2d_3">
      <g>
       <use style="stroke:#000000;stroke-width:0.8;" x="144" xlink:href="#m97b7bd249b" y="316.8"/>
      </g>
     </g>
     <g id="text_3">
      <!-- −0.1 -->
      <g transform="translate(131.858594 331.398437)scale(0.1 -0.1)">
       <defs>
        <path d="M 794 531 
L 1825 531 
L 1825 4091 
L 703 3866 
L 703 4441 
L 1819 4666 
L 2450 4666 
L 2450 531 
L 3481 531 
L 3481 0 
L 794 0 
L 794 531 
z
" id="DejaVuSans-31" transform="scale(0.015625)"/>
       </defs>
       <use xlink:href="#DejaVuSans-2212"/>
       <use x="83.789062" xlink:href="#DejaVuSans-30"/>
       <use x="147.412109" xlink:href="#DejaVuSans-2e"/>
       <use x="179.199219" xlink:href="#DejaVuSans-31"/>
      </g>
     </g>
    </g>
    <g id="xtick_4">
     <g id="line2d_4">
      <g>
       <use style="stroke:#000000;stroke-width:0.8;" x="187.2" xlink:href="#m97b7bd249b" y="316.8"/>
      </g>
     </g>
     <g id="text_4">
      <!-- 0.0 -->
      <g transform="translate(179.248437 331.398437)scale(0.1 -0.1)">
       <use xlink:href="#DejaVuSans-30"/>
       <use x="63.623047" xlink:href="#DejaVuSans-2e"/>
       <use x="95.410156" xlink:href="#DejaVuSans-30"/>
      </g>
     </g>
    </g>
    <g id="xtick_5">
     <g id="line2d_5">
      <g>
       <use style="stroke:#000000;stroke-width:0.8;" x="230.4" xlink:href="#m97b7bd249b" y="316.8"/>
      </g>
     </g>
     <g id="text_5">
      <!-- 0.1 -->
      <g transform="translate(222.448437 331.398437)scale(0.1 -0.1)">
       <use xlink:href="#DejaVuSans-30"/>
       <use x="63.623047" xlink:href="#DejaVuSans-2e"/>
       <use x="95.410156" xlink:href="#DejaVuSans-31"/>
      </g>
     </g>
    </g>
    <g id="xtick_6">
     <g id="line2d_6">
      <g>
       <use style="stroke:#000000;stroke-width:0.8;" x="273.6" xlink:href="#m97b7bd249b" y="316.8"/>
      </g>
     </g>
     <g id="text_6">
      <!-- 0.2 -->
      <g transform="translate(265.648437 331.398437)scale(0.1 -0.1)">
       <use xlink:href="#DejaVuSans-30"/>
       <use x="63.623047" xlink:href="#DejaVuSans-2e"/>
       <use x="95.410156" xlink:href="#DejaVuSans-32"/>
      </g>
     </g>
    </g>
    <g id="xtick_7">
     <g id="line2d_7">
      <g>
       <use style="stroke:#000000;stroke-width:0.8;" x="316.8" xlink:href="#m97b7bd249b" y="316.8"/>
      </g>
     </g>
     <g id="text_7">
      <!-- 0.3 -->
      <g transform="translate(308.848437 331.398437)scale(0.1 -0.1)">
       <use xlink:href="#DejaVuSans-30"/>
       <use x="63.623047" xlink:href="#DejaVuSans-2e"/>
       <use x="95.410156" xlink:href="#DejaVuSans-33"/>
      </g>
     </g>
    </g>
    <g id="xtick_8">
     <g id="line2d_8">
      <g>
       <use style="stroke:#000000;stroke-width:0.8;" x="360" xlink:href="#m97b7bd249b" y="316.8"/>
      </g>
     </g>
     <g id="text_8">
      <!-- 0.4 -->
      <g transform="translate(352.048437 331.398437)scale(0.1 -0.1)">
       <defs>
        <path d="M 2419 4116 
L 825 1625 
L 2419 1625 
L 2419 4116 
z
M 2253 4666 
L 3047 4666 
L 3047 1625 
L 3713 1625 
L 3713 1100 
L 3047 1100 
L 3047 0 
L 2419 0 
L 2419 1100 
L 313 1100 
L 313 1709 
L 2253 4666 
z
" id="DejaVuSans-34" transform="scale(0.015625)"/>
       </defs>
       <use xlink:href="#DejaVuSans-30"/>
       <use x="63.623047" xlink:href="#DejaVuSans-2e"/>
       <use x="95.410156" xlink:href="#DejaVuSans-34"/>
      </g>
     </g>
    </g>
    <g id="xtick_9">
     <g id="line2d_9">
      <g>
       <use style="stroke:#000000;stroke-width:0.8;" x="403.2" xlink:href="#m97b7bd249b" y="316.8"/>
      </g>
     </g>
     <g id="text_9">
      <!-- 0.5 -->
      <g transform="translate(395.248437 331.398437)scale(0.1 -0.1)">
       <defs>
        <path d="M 691 4666 
L 3169 4666 
L 3169 4134 
L 1269 4134 
L 1269 2991 
Q 1406 3038 1543 3061 
Q 1681 3084 1819 3084 
Q 2600 3084 3056 2656 
Q 3513 2228 3513 1497 
Q 3513 744 3044 326 
Q 2575 -91 1722 -91 
Q 1428 -91 1123 -41 
Q 819 9 494 109 
L 494 744 
Q 775 591 1075 516 
Q 1375 441 1709 441 
Q 2250 441 2565 725 
Q 2881 1009 2881 1497 
Q 2881 1984 2565 2268 
Q 2250 2553 1709 2553 
Q 1456 2553 1204 2497 
Q 953 2441 691 2322 
L 691 4666 
z
" id="DejaVuSans-35" transform="scale(0.015625)"/>
       </defs>
       <use xlink:href="#DejaVuSans-30"/>
       <use x="63.623047" xlink:href="#DejaVuSans-2e"/>
       <use x="95.410156" xlink:href="#DejaVuSans-35"/>
      </g>
     </g>
    </g>
    <g id="text_10">
     <!-- mu -->
     <g transform="translate(222.360937 345.076562)scale(0.1 -0.1)">
      <defs>
       <path d="M 3328 2828 
Q 3544 3216 3844 3400 
Q 4144 3584 4550 3584 
Q 5097 3584 5394 3201 
Q 5691 2819 5691 2113 
L 5691 0 
L 5113 0 
L 5113 2094 
Q 5113 2597 4934 2840 
Q 4756 3084 4391 3084 
Q 3944 3084 3684 2787 
Q 3425 2491 3425 1978 
L 3425 0 
L 2847 0 
L 2847 2094 
Q 2847 2600 2669 2842 
Q 2491 3084 2119 3084 
Q 1678 3084 1418 2786 
Q 1159 2488 1159 1978 
L 1159 0 
L 581 0 
L 581 3500 
L 1159 3500 
L 1159 2956 
Q 1356 3278 1631 3431 
Q 1906 3584 2284 3584 
Q 2666 3584 2933 3390 
Q 3200 3197 3328 2828 
z
" id="DejaVuSans-6d" transform="scale(0.015625)"/>
       <path d="M 544 1381 
L 544 3500 
L 1119 3500 
L 1119 1403 
Q 1119 906 1312 657 
Q 1506 409 1894 409 
Q 2359 409 2629 706 
Q 2900 1003 2900 1516 
L 2900 3500 
L 3475 3500 
L 3475 0 
L 2900 0 
L 2900 538 
Q 2691 219 2414 64 
Q 2138 -91 1772 -91 
Q 1169 -91 856 284 
Q 544 659 544 1381 
z
M 1991 3584 
L 1991 3584 
z
" id="DejaVuSans-75" transform="scale(0.015625)"/>
      </defs>
      <use xlink:href="#DejaVuSans-6d"/>
      <use x="97.412109" xlink:href="#DejaVuSans-75"/>
     </g>
    </g>
   </g>
   <g id="matplotlib.axis_2">
    <g id="ytick_1">
     <g id="line2d_10">
      <defs>
       <path d="M 0 0 
L -3.5 0 
" id="m37e64f6f84" style="stroke:#000000;stroke-width:0.8;"/>
      </defs>
      <g>
       <use style="stroke:#000000;stroke-width:0.8;" x="57.6" xlink:href="#m37e64f6f84" y="316.8"/>
      </g>
     </g>
     <g id="text_11">
      <!-- −2.0 -->
      <g transform="translate(26.317187 320.599219)scale(0.1 -0.1)">
       <use xlink:href="#DejaVuSans-2212"/>
       <use x="83.789062" xlink:href="#DejaVuSans-32"/>
       <use x="147.412109" xlink:href="#DejaVuSans-2e"/>
       <use x="179.199219" xlink:href="#DejaVuSans-30"/>
      </g>
     </g>
    </g>
    <g id="ytick_2">
     <g id="line2d_11">
      <g>
       <use style="stroke:#000000;stroke-width:0.8;" x="57.6" xlink:href="#m37e64f6f84" y="280.8"/>
      </g>
     </g>
     <g id="text_12">
      <!-- −1.5 -->
      <g transform="translate(26.317187 284.599219)scale(0.1 -0.1)">
       <use xlink:href="#DejaVuSans-2212"/>
       <use x="83.789062" xlink:href="#DejaVuSans-31"/>
       <use x="147.412109" xlink:href="#DejaVuSans-2e"/>
       <use x="179.199219" xlink:href="#DejaVuSans-35"/>
      </g>
     </g>
    </g>
    <g id="ytick_3">
     <g id="line2d_12">
      <g>
       <use style="stroke:#000000;stroke-width:0.8;" x="57.6" xlink:href="#m37e64f6f84" y="244.8"/>
      </g>
     </g>
     <g id="text_13">
      <!-- −1.0 -->
      <g transform="translate(26.317187 248.599219)scale(0.1 -0.1)">
       <use xlink:href="#DejaVuSans-2212"/>
       <use x="83.789062" xlink:href="#DejaVuSans-31"/>
       <use x="147.412109" xlink:href="#DejaVuSans-2e"/>
       <use x="179.199219" xlink:href="#DejaVuSans-30"/>
      </g>
     </g>
    </g>
    <g id="ytick_4">
     <g id="line2d_13">
      <g>
       <use style="stroke:#000000;stroke-width:0.8;" x="57.6" xlink:href="#m37e64f6f84" y="208.8"/>
      </g>
     </g>
     <g id="text_14">
      <!-- −0.5 -->
      <g transform="translate(26.317187 212.599219)scale(0.1 -0.1)">
       <use xlink:href="#DejaVuSans-2212"/>
       <use x="83.789062" xlink:href="#DejaVuSans-30"/>
       <use x="147.412109" xlink:href="#DejaVuSans-2e"/>
       <use x="179.199219" xlink:href="#DejaVuSans-35"/>
      </g>
     </g>
    </g>
    <g id="ytick_5">
     <g id="line2d_14">
      <g>
       <use style="stroke:#000000;stroke-width:0.8;" x="57.6" xlink:href="#m37e64f6f84" y="172.8"/>
      </g>
     </g>
     <g id="text_15">
      <!-- 0.0 -->
      <g transform="translate(34.696875 176.599219)scale(0.1 -0.1)">
       <use xlink:href="#DejaVuSans-30"/>
       <use x="63.623047" xlink:href="#DejaVuSans-2e"/>
       <use x="95.410156" xlink:href="#DejaVuSans-30"/>
      </g>
     </g>
    </g>
    <g id="ytick_6">
     <g id="line2d_15">
      <g>
       <use style="stroke:#000000;stroke-width:0.8;" x="57.6" xlink:href="#m37e64f6f84" y="136.8"/>
      </g>
     </g>
     <g id="text_16">
      <!-- 0.5 -->
      <g transform="translate(34.696875 140.599219)scale(0.1 -0.1)">
       <use xlink:href="#DejaVuSans-30"/>
       <use x="63.623047" xlink:href="#DejaVuSans-2e"/>
       <use x="95.410156" xlink:href="#DejaVuSans-35"/>
      </g>
     </g>
    </g>
    <g id="ytick_7">
     <g id="line2d_16">
      <g>
       <use style="stroke:#000000;stroke-width:0.8;" x="57.6" xlink:href="#m37e64f6f84" y="100.8"/>
      </g>
     </g>
     <g id="text_17">
      <!-- 1.0 -->
      <g transform="translate(34.696875 104.599219)scale(0.1 -0.1)">
       <use xlink:href="#DejaVuSans-31"/>
       <use x="63.623047" xlink:href="#DejaVuSans-2e"/>
       <use x="95.410156" xlink:href="#DejaVuSans-30"/>
      </g>
     </g>
    </g>
    <g id="ytick_8">
     <g id="line2d_17">
      <g>
       <use style="stroke:#000000;stroke-width:0.8;" x="57.6" xlink:href="#m37e64f6f84" y="64.8"/>
      </g>
     </g>
     <g id="text_18">
      <!-- 1.5 -->
      <g transform="translate(34.696875 68.599219)scale(0.1 -0.1)">
       <use xlink:href="#DejaVuSans-31"/>
       <use x="63.623047" xlink:href="#DejaVuSans-2e"/>
       <use x="95.410156" xlink:href="#DejaVuSans-35"/>
      </g>
     </g>
    </g>
    <g id="ytick_9">
     <g id="line2d_18">
      <g>
       <use style="stroke:#000000;stroke-width:0.8;" x="57.6" xlink:href="#m37e64f6f84" y="28.8"/>
      </g>
     </g>
     <g id="text_19">
      <!-- 2.0 -->
      <g transform="translate(34.696875 32.599219)scale(0.1 -0.1)">
       <use xlink:href="#DejaVuSans-32"/>
       <use x="63.623047" xlink:href="#DejaVuSans-2e"/>
       <use x="95.410156" xlink:href="#DejaVuSans-30"/>
      </g>
     </g>
    </g>
    <g id="text_20">
     <!-- PL -->
     <g transform="translate(20.2375 178.600781)rotate(-90)scale(0.1 -0.1)">
      <defs>
       <path d="M 1259 4147 
L 1259 2394 
L 2053 2394 
Q 2494 2394 2734 2622 
Q 2975 2850 2975 3272 
Q 2975 3691 2734 3919 
Q 2494 4147 2053 4147 
L 1259 4147 
z
M 628 4666 
L 2053 4666 
Q 2838 4666 3239 4311 
Q 3641 3956 3641 3272 
Q 3641 2581 3239 2228 
Q 2838 1875 2053 1875 
L 1259 1875 
L 1259 0 
L 628 0 
L 628 4666 
z
" id="DejaVuSans-50" transform="scale(0.015625)"/>
       <path d="M 628 4666 
L 1259 4666 
L 1259 531 
L 3531 531 
L 3531 0 
L 628 0 
L 628 4666 
z
" id="DejaVuSans-4c" transform="scale(0.015625)"/>
      </defs>
      <use xlink:href="#DejaVuSans-50"/>
      <use x="60.302734" xlink:href="#DejaVuSans-4c"/>
     </g>
    </g>
   </g>
   <g id="line2d_19">
    <path clip-path="url(#p3671955c28)" d="M 187.2 170.64 
L 187.2 162 
" style="fill:none;stroke:#000000;stroke-linecap:square;stroke-width:0.5;"/>
   </g>
   <g id="line2d_20">
    <path clip-path="url(#p3671955c28)" d="M 197.977959 174.670615 
L 202.297959 182.153074 
" style="fill:none;stroke:#000000;stroke-linecap:square;stroke-width:0.5;"/>
   </g>
   <g id="line2d_21">
    <path clip-path="url(#p3671955c28)" d="M 401.329384 173.88 
L 387.611542 181.8 
" style="fill:none;stroke:#000000;stroke-linecap:square;stroke-width:0.5;"/>
   </g>
   <g id="line2d_22">
    <path clip-path="url(#p3671955c28)" d="M 205.145913 143.131822 
L 212.628372 138.811822 
" style="fill:none;stroke:#000000;stroke-linecap:square;stroke-width:0.5;"/>
   </g>
   <g id="line2d_23">
    <path clip-path="url(#p3671955c28)" d="M 160.354084 46.082505 
L 152.008485 43.846308 
" style="fill:none;stroke:#000000;stroke-linecap:square;stroke-width:0.5;"/>
   </g>
   <g id="line2d_24">
    <path clip-path="url(#p3671955c28)" d="M 171.519964 174.327366 
L 165.410562 180.436769 
" style="fill:none;stroke:#000000;stroke-linecap:square;stroke-width:0.5;"/>
   </g>
   <g id="line2d_25">
    <path clip-path="url(#p3671955c28)" d="M 186.244656 174.737245 
L 180.831043 185.714967 
" style="fill:none;stroke:#000000;stroke-linecap:square;stroke-width:0.5;"/>
   </g>
   <g id="line2d_26">
    <path clip-path="url(#p3671955c28)" d="M 150.646154 170.64 
L 150.646154 162 
" style="fill:none;stroke:#000000;stroke-linecap:square;stroke-width:0.5;"/>
   </g>
   <g id="line2d_27">
    <path clip-path="url(#p3671955c28)" d="M 79.200001 170.64 
L 79.200001 162 
" style="fill:none;stroke:#000000;stroke-linecap:square;stroke-width:0.5;"/>
   </g>
   <g id="line2d_28">
    <path clip-path="url(#p3671955c28)" d="M 127.132858 288.673218 
L 118.787259 286.437021 
" style="fill:none;stroke:#000000;stroke-linecap:square;stroke-width:0.5;"/>
   </g>
   <g id="line2d_29">
    <path clip-path="url(#p3671955c28)" d="M 120.216114 308.0275 
L 110.505469 300.576261 
" style="fill:none;stroke:#000000;stroke-linecap:square;stroke-width:0.5;"/>
   </g>
   <g id="line2d_30">
    <path clip-path="url(#p3671955c28)" d="M 172.747007 170.658459 
L 171.149367 158.523174 
" style="fill:none;stroke:#000000;stroke-linecap:square;stroke-width:0.5;"/>
   </g>
   <g id="line2d_31">
    <path clip-path="url(#p3671955c28)" d="M 187.2 172.8 
L 187.632 172.8 
L 188.064 172.8 
L 188.928 172.8 
L 190.656 172.8 
L 194.112001 172.8 
L 196.897959 172.8 
" style="fill:none;stroke:#000000;stroke-dasharray:12,12;stroke-dashoffset:0;stroke-width:2;"/>
   </g>
   <g id="line2d_32">
    <path clip-path="url(#p3671955c28)" d="M 196.897959 172.8 
L 203.80996 172.8 
L 217.633961 172.8 
L 239.233963 172.8 
L 260.833966 172.8 
L 282.433968 172.8 
L 304.03397 172.8 
L 325.633972 172.8 
L 347.233974 172.8 
L 368.833976 172.8 
L 390.433979 172.8 
L 403.199999 172.8 
" style="fill:none;stroke:#000000;stroke-linecap:square;stroke-width:2;"/>
   </g>
   <g id="line2d_33">
    <path clip-path="url(#p3671955c28)" d="M 196.897959 172.8 
L 196.900119 172.794339 
L 196.902279 172.788678 
L 196.906598 172.777355 
L 196.915236 172.754704 
L 196.928191 172.720717 
L 196.94762 172.669711 
L 196.976754 172.593146 
L 197.020435 172.47817 
L 197.085909 172.305416 
L 197.184004 172.045633 
L 197.330869 171.654475 
L 197.545088 171.078886 
L 197.758404 170.499376 
L 197.970691 169.915873 
L 198.181818 169.328307 
L 198.391648 168.736606 
L 198.600039 168.140695 
L 198.806839 167.540502 
L 199.011892 166.93595 
L 199.215033 166.326965 
L 199.416092 165.713468 
L 199.614888 165.095382 
L 199.811236 164.472629 
L 200.00494 163.845129 
L 200.195796 163.212801 
L 200.383593 162.575564 
L 200.568111 161.933337 
L 200.749121 161.286035 
L 200.926382 160.633576 
L 201.099649 159.975876 
L 201.268662 159.31285 
L 201.433156 158.644412 
L 201.592853 157.970476 
L 201.747467 157.290958 
L 201.8967 156.605769 
L 202.040246 155.914823 
L 202.177788 155.218032 
L 202.308998 154.515311 
L 202.433539 153.806571 
L 202.551063 153.091726 
L 202.661213 152.37069 
L 202.763622 151.643375 
L 202.857913 150.909696 
L 202.9437 150.169568 
L 203.020589 149.422907 
L 203.088176 148.669631 
L 203.14605 147.909657 
L 203.193794 147.142905 
L 203.230983 146.369297 
L 203.257186 145.588756 
L 203.271969 144.801207 
L 203.275298 144.211822 
" style="fill:none;stroke:#ff0000;stroke-dasharray:12,12;stroke-dashoffset:0;stroke-width:2;"/>
   </g>
   <g id="line2d_34">
    <path clip-path="url(#p3671955c28)" d="M 203.275298 144.211822 
L 203.269132 143.411893 
L 203.250338 142.604766 
L 203.218477 141.790378 
L 203.173108 140.968669 
L 203.113794 140.139583 
L 203.040106 139.303068 
L 202.951621 138.459077 
L 202.847924 137.607568 
L 202.728615 136.748505 
L 202.593306 135.881856 
L 202.441629 135.007598 
L 202.273235 134.125711 
L 202.087797 133.236184 
L 201.885014 132.339015 
L 201.664616 131.434206 
L 201.426365 130.521768 
L 201.170056 129.601723 
L 200.895524 128.674098 
L 200.602647 127.73893 
L 200.291346 126.796267 
L 199.96159 125.846163 
L 199.613397 124.888683 
L 199.246839 123.923903 
L 198.862042 122.951905 
L 198.459188 121.972782 
L 198.038517 120.986636 
L 197.600327 119.99358 
L 197.144975 118.993732 
L 196.672879 117.987222 
L 196.184512 116.974185 
L 195.680407 115.954766 
L 195.161149 114.929115 
L 194.627378 113.897392 
L 194.079785 112.859757 
L 193.519105 111.816382 
L 192.946117 110.767437 
L 192.361639 109.713101 
L 191.766519 108.653552 
L 191.161638 107.588973 
L 190.547896 106.519548 
L 189.926214 105.445459 
L 189.297522 104.366893 
L 188.662759 103.284032 
L 188.022861 102.197058 
L 187.378764 101.106152 
L 186.73139 100.011493 
L 186.081649 98.913255 
L 185.430432 97.81161 
L 184.778605 96.706727 
L 184.127007 95.598768 
L 183.476448 94.487895 
L 182.827702 93.374261 
L 182.181509 92.258017 
L 181.53857 91.139309 
L 180.899548 90.018278 
L 180.265064 88.895057 
L 179.635699 87.769779 
L 179.01199 86.642569 
L 178.394435 85.513546 
L 177.78349 84.382828 
L 177.179569 83.250523 
L 176.583047 82.11674 
L 175.99426 80.981579 
L 175.413508 79.845138 
L 174.841053 78.707509 
L 174.277123 77.568782 
L 173.721913 76.429041 
L 173.175587 75.288367 
L 172.63828 74.146837 
L 172.110098 73.004525 
L 171.591121 71.861501 
L 171.081407 70.717832 
L 170.580988 69.573581 
L 170.089878 68.42881 
L 169.608069 67.283576 
L 169.135539 66.137935 
L 168.672247 64.991937 
L 168.218138 63.845635 
L 167.773143 62.699073 
L 167.337184 61.552299 
L 166.910169 60.405353 
L 166.491998 59.258278 
L 166.082561 58.111111 
L 165.681744 56.963889 
L 165.289422 55.816646 
L 164.905468 54.669416 
L 164.529748 53.522229 
L 164.162126 52.375115 
L 163.802461 51.228101 
L 163.45061 50.081214 
L 163.106428 48.934479 
L 162.769768 47.787918 
L 162.440484 46.641554 
" style="fill:none;stroke:#ff0000;stroke-linecap:square;stroke-width:2;"/>
   </g>
   <g id="line2d_35">
    <path clip-path="url(#p3671955c28)" d="M 162.440484 46.641554 
L 162.440484 46.641554 
" style="fill:none;stroke:#ff0000;stroke-dasharray:12,12;stroke-dashoffset:0;stroke-width:2;"/>
   </g>
   <g id="line2d_36">
    <path clip-path="url(#p3671955c28)" d="M 196.897959 172.8 
L 173.047315 172.800015 
L 173.047315 172.800015 
" style="fill:none;stroke:#008000;stroke-dasharray:12,12;stroke-dashoffset:0;stroke-width:2;"/>
   </g>
   <g id="line2d_37">
    <path clip-path="url(#p3671955c28)" d="M 187.2 172.8 
L 186.768 172.8 
L 186.336 172.8 
L 185.472 172.8 
L 183.744 172.8 
L 180.287999 172.8 
L 173.375999 172.8 
L 159.551997 172.8 
L 150.646154 172.8 
L 129.046151 172.8 
L 107.446149 172.8 
L 85.846147 172.8 
L 79.200001 172.8 
" style="fill:none;stroke:#0000ff;stroke-dasharray:12,12;stroke-dashoffset:0;stroke-width:2;"/>
   </g>
   <g id="line2d_38">
    <path clip-path="url(#p3671955c28)" d="M 150.646154 172.8 
L 150.546558 176.551375 
L 150.232457 180.659085 
L 149.599884 185.751571 
L 148.645479 191.467203 
L 147.262825 198.353311 
L 144.779036 209.397372 
L 140.28575 229.312812 
L 137.772681 241.588056 
L 135.36646 254.503456 
L 132.153815 273.154357 
L 129.837455 286.131735 
L 128.41278 292.924563 
L 127.341218 297.12757 
L 126.263282 300.534142 
L 125.228763 303.135347 
L 123.846786 305.919119 
L 121.929758 309.342425 
L 121.929758 309.342425 
" style="fill:none;stroke:#000000;stroke-dasharray:12,12;stroke-dashoffset:0;stroke-width:2;"/>
   </g>
   <g id="line2d_39">
    <path clip-path="url(#p3671955c28)" d="M 150.646154 172.8 
L 173.028944 172.79998 
L 173.028944 172.79998 
" style="fill:none;stroke:#ff0000;stroke-dasharray:12,12;stroke-dashoffset:0;stroke-width:2;"/>
   </g>
   <g id="patch_3">
    <path d="M 57.6 316.8 
L 57.6 28.8 
" style="fill:none;stroke:#000000;stroke-linecap:square;stroke-linejoin:miter;stroke-width:0.8;"/>
   </g>
   <g id="patch_4">
    <path d="M 403.2 316.8 
L 403.2 28.8 
" style="fill:none;stroke:#000000;stroke-linecap:square;stroke-linejoin:miter;stroke-width:0.8;"/>
   </g>
   <g id="patch_5">
    <path d="M 57.6 316.8 
L 403.2 316.8 
" style="fill:none;stroke:#000000;stroke-linecap:square;stroke-linejoin:miter;stroke-width:0.8;"/>
   </g>
   <g id="patch_6">
    <path d="M 57.6 28.8 
L 403.2 28.8 
" style="fill:none;stroke:#000000;stroke-linecap:square;stroke-linejoin:miter;stroke-width:0.8;"/>
   </g>
   <g id="text_21">
    <g clip-path="url(#p3671955c28)">
     <!-- 1 -->
     <g transform="translate(184.01875 158.480313)scale(0.1 -0.1)">
      <use xlink:href="#DejaVuSans-31"/>
     </g>
    </g>
   </g>
   <g id="text_22">
    <g clip-path="url(#p3671955c28)">
     <!-- 2 -->
     <g transform="translate(203.017959 190.998588)scale(0.1 -0.1)">
      <use xlink:href="#DejaVuSans-32"/>
     </g>
    </g>
   </g>
   <g id="text_23">
    <g clip-path="url(#p3671955c28)">
     <!-- 3 -->
     <g transform="translate(380.001965 190.118437)scale(0.1 -0.1)">
      <use xlink:href="#DejaVuSans-33"/>
     </g>
    </g>
   </g>
   <g id="text_24">
    <g clip-path="url(#p3671955c28)">
     <!-- 4 -->
     <g transform="translate(213.875449 136.012135)scale(0.1 -0.1)">
      <use xlink:href="#DejaVuSans-34"/>
     </g>
    </g>
   </g>
   <g id="text_25">
    <g clip-path="url(#p3671955c28)">
     <!-- 5 -->
     <g transform="translate(144.255051 46.232984)scale(0.1 -0.1)">
      <use xlink:href="#DejaVuSans-35"/>
     </g>
    </g>
   </g>
   <g id="text_26">
    <g clip-path="url(#p3671955c28)">
     <!-- 6 -->
     <g transform="translate(158.029828 189.05344)scale(0.1 -0.1)">
      <defs>
       <path d="M 2113 2584 
Q 1688 2584 1439 2293 
Q 1191 2003 1191 1497 
Q 1191 994 1439 701 
Q 1688 409 2113 409 
Q 2538 409 2786 701 
Q 3034 994 3034 1497 
Q 3034 2003 2786 2293 
Q 2538 2584 2113 2584 
z
M 3366 4563 
L 3366 3988 
Q 3128 4100 2886 4159 
Q 2644 4219 2406 4219 
Q 1781 4219 1451 3797 
Q 1122 3375 1075 2522 
Q 1259 2794 1537 2939 
Q 1816 3084 2150 3084 
Q 2853 3084 3261 2657 
Q 3669 2231 3669 1497 
Q 3669 778 3244 343 
Q 2819 -91 2113 -91 
Q 1303 -91 875 529 
Q 447 1150 447 2328 
Q 447 3434 972 4092 
Q 1497 4750 2381 4750 
Q 2619 4750 2861 4703 
Q 3103 4656 3366 4563 
z
" id="DejaVuSans-36" transform="scale(0.015625)"/>
      </defs>
      <use xlink:href="#DejaVuSans-36"/>
     </g>
    </g>
   </g>
   <g id="text_27">
    <g clip-path="url(#p3671955c28)">
     <!-- 7 -->
     <g transform="translate(173.831647 194.604902)scale(0.1 -0.1)">
      <defs>
       <path d="M 525 4666 
L 3525 4666 
L 3525 4397 
L 1831 0 
L 1172 0 
L 2766 4134 
L 525 4134 
L 525 4666 
z
" id="DejaVuSans-37" transform="scale(0.015625)"/>
      </defs>
      <use xlink:href="#DejaVuSans-37"/>
     </g>
    </g>
   </g>
   <g id="text_28">
    <g clip-path="url(#p3671955c28)">
     <!-- 8 -->
     <g transform="translate(147.464904 158.480313)scale(0.1 -0.1)">
      <defs>
       <path d="M 2034 2216 
Q 1584 2216 1326 1975 
Q 1069 1734 1069 1313 
Q 1069 891 1326 650 
Q 1584 409 2034 409 
Q 2484 409 2743 651 
Q 3003 894 3003 1313 
Q 3003 1734 2745 1975 
Q 2488 2216 2034 2216 
z
M 1403 2484 
Q 997 2584 770 2862 
Q 544 3141 544 3541 
Q 544 4100 942 4425 
Q 1341 4750 2034 4750 
Q 2731 4750 3128 4425 
Q 3525 4100 3525 3541 
Q 3525 3141 3298 2862 
Q 3072 2584 2669 2484 
Q 3125 2378 3379 2068 
Q 3634 1759 3634 1313 
Q 3634 634 3220 271 
Q 2806 -91 2034 -91 
Q 1263 -91 848 271 
Q 434 634 434 1313 
Q 434 1759 690 2068 
Q 947 2378 1403 2484 
z
M 1172 3481 
Q 1172 3119 1398 2916 
Q 1625 2713 2034 2713 
Q 2441 2713 2670 2916 
Q 2900 3119 2900 3481 
Q 2900 3844 2670 4047 
Q 2441 4250 2034 4250 
Q 1625 4250 1398 4047 
Q 1172 3844 1172 3481 
z
" id="DejaVuSans-38" transform="scale(0.015625)"/>
      </defs>
      <use xlink:href="#DejaVuSans-38"/>
     </g>
    </g>
   </g>
   <g id="text_29">
    <g clip-path="url(#p3671955c28)">
     <!-- 9 -->
     <g transform="translate(76.018751 158.480313)scale(0.1 -0.1)">
      <defs>
       <path d="M 703 97 
L 703 672 
Q 941 559 1184 500 
Q 1428 441 1663 441 
Q 2288 441 2617 861 
Q 2947 1281 2994 2138 
Q 2813 1869 2534 1725 
Q 2256 1581 1919 1581 
Q 1219 1581 811 2004 
Q 403 2428 403 3163 
Q 403 3881 828 4315 
Q 1253 4750 1959 4750 
Q 2769 4750 3195 4129 
Q 3622 3509 3622 2328 
Q 3622 1225 3098 567 
Q 2575 -91 1691 -91 
Q 1453 -91 1209 -44 
Q 966 3 703 97 
z
M 1959 2075 
Q 2384 2075 2632 2365 
Q 2881 2656 2881 3163 
Q 2881 3666 2632 3958 
Q 2384 4250 1959 4250 
Q 1534 4250 1286 3958 
Q 1038 3666 1038 3163 
Q 1038 2656 1286 2365 
Q 1534 2075 1959 2075 
z
" id="DejaVuSans-39" transform="scale(0.015625)"/>
      </defs>
      <use xlink:href="#DejaVuSans-39"/>
     </g>
    </g>
   </g>
   <g id="text_30">
    <g clip-path="url(#p3671955c28)">
     <!-- 10 -->
     <g transform="translate(104.671326 288.823697)scale(0.1 -0.1)">
      <use xlink:href="#DejaVuSans-31"/>
      <use x="63.623047" xlink:href="#DejaVuSans-30"/>
     </g>
    </g>
   </g>
   <g id="text_31">
    <g clip-path="url(#p3671955c28)">
     <!-- 11 -->
     <g transform="translate(96.638041 297.619957)scale(0.1 -0.1)">
      <use xlink:href="#DejaVuSans-31"/>
      <use x="63.623047" xlink:href="#DejaVuSans-31"/>
     </g>
    </g>
   </g>
   <g id="text_32">
    <g clip-path="url(#p3671955c28)">
     <!-- 12 -->
     <g transform="translate(164.598909 155.015806)scale(0.1 -0.1)">
      <use xlink:href="#DejaVuSans-31"/>
      <use x="63.623047" xlink:href="#DejaVuSans-32"/>
     </g>
    </g>
   </g>
   <g id="text_33">
    <g clip-path="url(#p3671955c28)">
     <!-- B -->
     <g style="fill:#ff0000;" transform="translate(193.46749 175.559375)scale(0.1 -0.1)">
      <defs>
       <path d="M 1259 2228 
L 1259 519 
L 2272 519 
Q 2781 519 3026 730 
Q 3272 941 3272 1375 
Q 3272 1813 3026 2020 
Q 2781 2228 2272 2228 
L 1259 2228 
z
M 1259 4147 
L 1259 2741 
L 2194 2741 
Q 2656 2741 2882 2914 
Q 3109 3088 3109 3444 
Q 3109 3797 2882 3972 
Q 2656 4147 2194 4147 
L 1259 4147 
z
M 628 4666 
L 2241 4666 
Q 2963 4666 3353 4366 
Q 3744 4066 3744 3513 
Q 3744 3084 3544 2831 
Q 3344 2578 2956 2516 
Q 3422 2416 3680 2098 
Q 3938 1781 3938 1306 
Q 3938 681 3513 340 
Q 3088 0 2303 0 
L 628 0 
L 628 4666 
z
" id="DejaVuSans-42" transform="scale(0.015625)"/>
      </defs>
      <use xlink:href="#DejaVuSans-42"/>
     </g>
    </g>
   </g>
   <g id="text_34">
    <g clip-path="url(#p3671955c28)">
     <!-- U -->
     <g style="fill:#ff0000;" transform="translate(399.540624 175.559375)scale(0.1 -0.1)">
      <defs>
       <path d="M 556 4666 
L 1191 4666 
L 1191 1831 
Q 1191 1081 1462 751 
Q 1734 422 2344 422 
Q 2950 422 3222 751 
Q 3494 1081 3494 1831 
L 3494 4666 
L 4128 4666 
L 4128 1753 
Q 4128 841 3676 375 
Q 3225 -91 2344 -91 
Q 1459 -91 1007 375 
Q 556 841 556 1753 
L 556 4666 
z
" id="DejaVuSans-55" transform="scale(0.015625)"/>
      </defs>
      <use xlink:href="#DejaVuSans-55"/>
     </g>
    </g>
   </g>
   <g id="text_35">
    <g clip-path="url(#p3671955c28)">
     <!-- L -->
     <g style="fill:#ff0000;" transform="translate(200.48936 146.971197)scale(0.1 -0.1)">
      <use xlink:href="#DejaVuSans-4c"/>
     </g>
    </g>
   </g>
   <g id="text_36">
    <g clip-path="url(#p3671955c28)">
     <!-- X -->
     <g style="fill:#ff0000;" transform="translate(159.015484 49.400929)scale(0.1 -0.1)">
      <defs>
       <path d="M 403 4666 
L 1081 4666 
L 2241 2931 
L 3406 4666 
L 4084 4666 
L 2584 2425 
L 4184 0 
L 3506 0 
L 2194 1984 
L 872 0 
L 191 0 
L 1856 2491 
L 403 4666 
z
" id="DejaVuSans-58" transform="scale(0.015625)"/>
      </defs>
      <use xlink:href="#DejaVuSans-58"/>
     </g>
    </g>
   </g>
   <g id="text_37">
    <g clip-path="url(#p3671955c28)">
     <!-- X -->
     <g style="fill:#ff0000;" transform="translate(169.622315 175.55939)scale(0.1 -0.1)">
      <use xlink:href="#DejaVuSans-58"/>
     </g>
    </g>
   </g>
   <g id="text_38">
    <g clip-path="url(#p3671955c28)">
     <!-- B -->
     <g style="fill:#ff0000;" transform="translate(147.215685 175.559375)scale(0.1 -0.1)">
      <use xlink:href="#DejaVuSans-42"/>
     </g>
    </g>
   </g>
   <g id="text_39">
    <g clip-path="url(#p3671955c28)">
     <!-- U -->
     <g style="fill:#ff0000;" transform="translate(75.540626 175.559375)scale(0.1 -0.1)">
      <use xlink:href="#DejaVuSans-55"/>
     </g>
    </g>
   </g>
   <g id="text_40">
    <g clip-path="url(#p3671955c28)">
     <!-- X -->
     <g style="fill:#ff0000;" transform="translate(118.504758 312.1018)scale(0.1 -0.1)">
      <use xlink:href="#DejaVuSans-58"/>
     </g>
    </g>
   </g>
   <g id="text_41">
    <g clip-path="url(#p3671955c28)">
     <!-- X -->
     <g style="fill:#ff0000;" transform="translate(169.603944 175.559355)scale(0.1 -0.1)">
      <use xlink:href="#DejaVuSans-58"/>
     </g>
    </g>
   </g>
  </g>
 </g>
 <defs>
  <clipPath id="p3671955c28">
   <rect height="288" width="345.6" x="57.6" y="28.8"/>
  </clipPath>
 </defs>
</svg>
